<?xml version="1.0" encoding="UTF-8" standalone="no"?>
<!-- Created with Inkscape (http://www.inkscape.org/) -->

<svg
   width="211.5569mm"
   height="211.5569mm"
   viewBox="0 0 211.55691 211.55691"
   version="1.1"
   id="svg23540"
   xml:space="preserve"
   inkscape:version="1.2.1 (9c6d41e410, 2022-07-14)"
   sodipodi:docname="Lipton 20142.svg"
   xmlns:inkscape="http://www.inkscape.org/namespaces/inkscape"
   xmlns:sodipodi="http://sodipodi.sourceforge.net/DTD/sodipodi-0.dtd"
   xmlns:xlink="http://www.w3.org/1999/xlink"
   xmlns="http://www.w3.org/2000/svg"
   xmlns:svg="http://www.w3.org/2000/svg"><sodipodi:namedview
     id="namedview23542"
     pagecolor="#ffffff"
     bordercolor="#000000"
     borderopacity="0.25"
     inkscape:showpageshadow="2"
     inkscape:pageopacity="0.0"
     inkscape:pagecheckerboard="0"
     inkscape:deskcolor="#d1d1d1"
     inkscape:document-units="mm"
     showgrid="false"
     inkscape:zoom="0.52221046"
     inkscape:cx="14.362026"
     inkscape:cy="358.09317"
     inkscape:window-width="1920"
     inkscape:window-height="1009"
     inkscape:window-x="-8"
     inkscape:window-y="-8"
     inkscape:window-maximized="1"
     inkscape:current-layer="svg23540" /><defs
     id="defs23537"><linearGradient
       inkscape:collect="always"
       id="linearGradient41012"><stop
         style="stop-color:#b58b46;stop-opacity:1;"
         offset="0"
         id="stop41008" /><stop
         style="stop-color:#f6eebf;stop-opacity:1;"
         offset="0.33333334"
         id="stop41016" /><stop
         style="stop-color:#b58b46;stop-opacity:1;"
         offset="0.66944444"
         id="stop41018" /><stop
         style="stop-color:#faeebc;stop-opacity:1;"
         offset="1"
         id="stop41010" /></linearGradient><linearGradient
       inkscape:collect="always"
       id="linearGradient32213"><stop
         style="stop-color:#fcfcfc;stop-opacity:1;"
         offset="0"
         id="stop32211" /><stop
         style="stop-color:#fcd600;stop-opacity:1;"
         offset="1"
         id="stop32209" /></linearGradient><linearGradient
       inkscape:collect="always"
       id="linearGradient24409"><stop
         style="stop-color:#d6271c;stop-opacity:1;"
         offset="0"
         id="stop24407" /><stop
         style="stop-color:#d1281a;stop-opacity:1;"
         offset="0.5"
         id="stop25804" /><stop
         style="stop-color:#961d14;stop-opacity:1;"
         offset="1"
         id="stop24405" /></linearGradient><linearGradient
       inkscape:collect="always"
       id="linearGradient24393"><stop
         style="stop-color:#ffffff;stop-opacity:1;"
         offset="0"
         id="stop24389" /><stop
         style="stop-color:#ffffff;stop-opacity:0.32692307;"
         offset="0.20000002"
         id="stop24403" /><stop
         style="stop-color:#ffffff;stop-opacity:0;"
         offset="1"
         id="stop24391" /></linearGradient><filter
       inkscape:collect="always"
       style="color-interpolation-filters:sRGB"
       id="filter24182"
       x="-0.050453285"
       y="-0.050453284"
       width="1.1009066"
       height="1.1009066"><feGaussianBlur
         inkscape:collect="always"
         stdDeviation="2.9175939"
         id="feGaussianBlur24184" /></filter><filter
       inkscape:collect="always"
       style="color-interpolation-filters:sRGB"
       id="filter24379"
       x="-0.10777299"
       y="-0.10777299"
       width="1.215546"
       height="1.215546"><feGaussianBlur
         inkscape:collect="always"
         stdDeviation="6.2322568"
         id="feGaussianBlur24377" /></filter><clipPath
       clipPathUnits="userSpaceOnUse"
       id="clipPath24385"><path
         d="m 197.07088,86.131577 c 0,38.322543 -31.06724,69.393163 -69.39316,69.393163 -38.322544,0 -69.393155,-31.07062 -69.393155,-69.393163 0,-38.325917 31.070611,-69.393155 69.393155,-69.393155 38.32592,0 69.39316,31.067238 69.39316,69.393155"
         fill="#fcd600"
         id="path24387"
         style="fill:#fcfcfc;fill-opacity:1;stroke:none;stroke-width:3.36516;stroke-opacity:1;filter:url(#filter24379)"
         transform="matrix(1.211872,0,0,1.211872,-27.051331,-20.284824)" /></clipPath><radialGradient
       inkscape:collect="always"
       xlink:href="#linearGradient24393"
       id="radialGradient24397"
       cx="130.99867"
       cy="72.130249"
       fx="130.99867"
       fy="72.130249"
       r="49.85096"
       gradientTransform="matrix(1.7654798,0,0,1.2712781,-100.27683,-19.691316)"
       gradientUnits="userSpaceOnUse" /><filter
       inkscape:collect="always"
       style="color-interpolation-filters:sRGB"
       id="filter24401"
       x="-0.070801782"
       y="-0.07080178"
       width="1.1416036"
       height="1.1416036"><feGaussianBlur
         inkscape:collect="always"
         stdDeviation="4.0942992"
         id="feGaussianBlur24399" /></filter><filter
       style="color-interpolation-filters:sRGB"
       inkscape:label="Drop Shadow"
       id="filter25439"
       x="-0.03690507"
       y="-0.112143"
       width="1.087137"
       height="1.2710123"><feFlood
         flood-opacity="0.4"
         flood-color="rgb(0,0,0)"
         result="flood"
         id="feFlood25429" /><feComposite
         in="flood"
         in2="SourceGraphic"
         operator="in"
         result="composite1"
         id="feComposite25431" /><feGaussianBlur
         in="composite1"
         stdDeviation="1.5"
         result="blur"
         id="feGaussianBlur25433" /><feOffset
         dx="1.3"
         dy="1.5"
         result="offset"
         id="feOffset25435" /><feComposite
         in="SourceGraphic"
         in2="offset"
         operator="over"
         result="composite2"
         id="feComposite25437" /></filter><radialGradient
       inkscape:collect="always"
       xlink:href="#linearGradient24409"
       id="radialGradient26565"
       cx="106.55225"
       cy="72.455605"
       fx="106.55225"
       fy="72.455605"
       r="59.405331"
       gradientTransform="matrix(1.1908356,0.1258097,-0.07190218,0.6805806,-14.826447,16.721894)"
       gradientUnits="userSpaceOnUse" /><filter
       inkscape:collect="always"
       style="color-interpolation-filters:sRGB"
       id="filter9222"
       x="-0.037742897"
       y="-0.037742902"
       width="1.0754858"
       height="1.0754858"><feGaussianBlur
         inkscape:collect="always"
         stdDeviation="0.36615853"
         id="feGaussianBlur9224" /></filter><filter
       inkscape:collect="always"
       style="color-interpolation-filters:sRGB"
       id="filter9218"
       x="-0.039905124"
       y="-0.039905135"
       width="1.0798102"
       height="1.0798103"><feGaussianBlur
         inkscape:collect="always"
         stdDeviation="0.18036977"
         id="feGaussianBlur9220" /></filter><filter
       inkscape:collect="always"
       style="color-interpolation-filters:sRGB"
       id="filter9226"
       x="-0.070801782"
       y="-0.070801782"
       width="1.1416036"
       height="1.1416036"><feGaussianBlur
         inkscape:collect="always"
         stdDeviation="0.47612958"
         id="feGaussianBlur9228" /></filter><radialGradient
       inkscape:collect="always"
       xlink:href="#linearGradient32213"
       id="radialGradient32217"
       cx="127.67773"
       cy="86.131584"
       fx="127.67773"
       fy="86.131584"
       r="76.395386"
       gradientUnits="userSpaceOnUse"
       gradientTransform="matrix(0.77814109,0,0,0.78249325,28.326442,18.734201)" /><filter
       inkscape:collect="always"
       style="color-interpolation-filters:sRGB"
       id="filter35855"
       x="-0.078348874"
       y="-0.078348874"
       width="1.1566977"
       height="1.1566977"><feGaussianBlur
         inkscape:collect="always"
         stdDeviation="0.52688247"
         id="feGaussianBlur35853" /></filter><linearGradient
       inkscape:collect="always"
       xlink:href="#linearGradient41012"
       id="linearGradient41014"
       x1="68.316757"
       y1="108.71352"
       x2="187.12398"
       y2="108.71352"
       gradientUnits="userSpaceOnUse" /></defs><g
     inkscape:label="Layer 1"
     inkscape:groupmode="layer"
     id="layer1"
     transform="translate(-36.234872,6.0576146)" /><g
     id="g45209"
     style="stroke:none"
     transform="matrix(0.88461854,0,0,0.88461854,1.6391507,2.2161617)"><g
       id="g45190"
       transform="translate(12.735305,13.241966)"
       style="stroke:none"><path
         d="m 197.07088,86.131577 c 0,38.322543 -31.06724,69.393163 -69.39316,69.393163 -38.322544,0 -69.393155,-31.07062 -69.393155,-69.393163 0,-38.325917 31.070611,-69.393155 69.393155,-69.393155 38.32592,0 69.39316,31.067238 69.39316,69.393155"
         fill="#fcd600"
         id="path24248"
         style="fill:#fcfcfc;fill-opacity:0.873239;stroke:none;stroke-width:3.36516;stroke-opacity:1;filter:url(#filter24401)"
         transform="matrix(1.5094168,0,0,1.5094168,-85.878997,-23.675211)" /><path
         d="m 197.07088,86.131577 c 0,38.322543 -31.06724,69.393163 -69.39316,69.393163 -38.322544,0 -69.393155,-31.07062 -69.393155,-69.393163 0,-38.325917 31.070611,-69.393155 69.393155,-69.393155 38.32592,0 69.39316,31.067238 69.39316,69.393155"
         fill="#fcd600"
         id="path7471"
         style="fill:url(#radialGradient32217);fill-opacity:1;stroke:none;stroke-width:3.36516;filter:url(#filter24182)"
         transform="matrix(1.3847898,0,0,1.3847898,-71.01526,-13.482586)" /><circle
         style="fill:url(#radialGradient24397);fill-opacity:1;stroke:none;stroke-width:7.9806;stroke-linecap:round;stroke-opacity:1;paint-order:stroke fill markers"
         id="path24351"
         cx="91.22467"
         cy="47.094547"
         r="52.059349"
         clip-path="url(#clipPath24385)"
         transform="translate(-48.587956,-7.0418124)" /><path
         d="m 30.436647,109.43571 c 0,-44.023513 35.369797,-79.7102 78.978563,-79.7102 26.7021,0 50.31459,13.374358 64.60696,33.850629 -13.93356,-24.246267 -39.94596,-40.56576 -69.72369,-40.56576 -44.470884,0 -80.535027,36.395013 -80.535027,81.275971 0,30.16452 16.272901,56.47983 40.44459,70.50659 C 43.797016,160.38406 30.436647,136.49196 30.436647,109.43571"
         fill="#ffffff"
         id="path7475"
         style="fill:#ffffff;fill-opacity:0.8;stroke:none;stroke-width:4.66004" /><path
         style="fill:#ffffff;fill-opacity:0.4;stroke:none;stroke-width:7.76472;stroke-linecap:round;stroke-opacity:0;paint-order:stroke fill markers;filter:url(#filter9222)"
         d="M 145.35754,160.1804 A 18.357784,18.357784 0 0 0 127,178.53846 a 18.357784,18.357784 0 0 0 18.35754,18.35753 18.357784,18.357784 0 0 0 18.35805,-18.35753 18.357784,18.357784 0 0 0 -18.35805,-18.35806 z"
         transform="matrix(1.3845268,0,0,1.3845268,-37.102022,-78.158546)"
         id="path30029" /><path
         style="fill:#ffffff;fill-opacity:0.7;stroke:none;stroke-width:7.76472;stroke-linecap:round;stroke-opacity:0;paint-order:stroke fill markers;filter:url(#filter9222)"
         d="M 60.854167,82.55 A 11.641668,11.641668 0 0 0 49.2125,94.191667 11.641668,11.641668 0 0 0 60.854167,105.83333 11.641668,11.641668 0 0 0 72.495833,94.191667 11.641668,11.641668 0 0 0 60.854167,82.55 Z"
         transform="matrix(1.3845268,0,0,1.3845268,-37.102022,-78.158546)"
         id="path5861" /><path
         style="fill:#ffffff;fill-opacity:0.35;stroke:none;stroke-width:3.61766;stroke-linecap:round;stroke-opacity:0;paint-order:stroke fill markers;filter:url(#filter9218)"
         d="m 130.70417,156.10417 a 7.9375024,7.9375024 0 0 0 -7.9375,7.9375 7.9375024,7.9375024 0 0 0 7.9375,7.9375 7.9375024,7.9375024 0 0 0 7.9375,-7.9375 7.9375024,7.9375024 0 0 0 -7.9375,-7.9375 z"
         transform="matrix(1.3845268,0,0,1.3845268,-37.102022,-75.445307)"
         id="path30025" /><path
         style="fill:#ffffff;fill-opacity:0.35;stroke:none;stroke-width:3.61766;stroke-linecap:round;stroke-opacity:0;paint-order:stroke fill markers;filter:url(#filter9218)"
         d="m 70.64375,98.160417 a 5.4239593,5.4239593 0 0 0 -5.423958,5.423953 5.4239593,5.4239593 0 0 0 5.423958,5.42396 5.4239593,5.4239593 0 0 0 5.423958,-5.42396 5.4239593,5.4239593 0 0 0 -5.423958,-5.423953 z"
         transform="matrix(1.3845268,0,0,1.3845268,-40.52241,-80.006042)"
         id="circle5863" /><path
         style="fill:#ffffff;fill-opacity:0.4;stroke:none;stroke-width:5.38236;stroke-linecap:round;stroke-opacity:0;paint-order:stroke fill markers;filter:url(#filter9226)"
         d="m 63.469338,152.59844 a 8.0697921,8.0697921 0 0 0 -8.06979,8.06979 8.0697921,8.0697921 0 0 0 8.06979,8.06979 8.0697921,8.0697921 0 0 0 8.06979,-8.06979 8.0697921,8.0697921 0 0 0 -8.06979,-8.06979 z"
         id="path9212"
         transform="matrix(1.3845268,0,0,1.3845268,-28.601015,-75.445307)" /><path
         style="mix-blend-mode:normal;fill:#ffffff;fill-opacity:0.0704225;stroke:none;stroke-width:5.38236;stroke-linecap:round;stroke-opacity:0;paint-order:stroke fill markers;filter:url(#filter35855)"
         d="m 63.469338,152.59844 a 8.0697921,8.0697921 0 0 0 -8.06979,8.06979 8.0697921,8.0697921 0 0 0 8.06979,8.06979 8.0697921,8.0697921 0 0 0 8.06979,-8.06979 8.0697921,8.0697921 0 0 0 -8.06979,-8.06979 z"
         id="path35851"
         transform="matrix(4.0124838,0,0,4.0124838,-180.28202,-503.25788)" /><path
         d="m 186.34335,96.565111 c 0.0746,1.435295 0.11647,2.884576 0.11647,4.347829 0,42.56026 -40.1184,83.15398 -81.95635,83.15398 -0.54522,0 -1.09511,0 -1.65431,-0.028 4.11482,0.73628 7.64714,0.78288 11.95303,0.78288 37.341,0 73.10689,-34.72204 73.10689,-73.28398 0,-5.14936 -0.54522,-10.14959 -1.56577,-14.972747"
         fill="#ffffff"
         id="path7477"
         style="stroke:none;stroke-width:4.66004" /></g><g
       id="g44416"
       style="stroke:none"
       transform="matrix(1.3847898,0,0,1.3847898,-58.279955,-0.24062088)"><path
         d="m 127.71878,55.526034 c -25.81758,0 -28.967376,8.557629 -59.401967,8.557629 v 36.976477 c 30.434591,0 33.584387,8.55763 59.401967,8.55763 25.81758,0 28.96739,-8.55763 59.40533,-8.55763 V 64.083663 c -30.43794,0 -33.58775,-8.557629 -59.40533,-8.557629"
         fill="#ffffff"
         id="path7479"
         style="stroke:none;stroke-width:3.36516" /><path
         id="path7481"
         style="fill:url(#linearGradient41014);fill-opacity:1;stroke:none;stroke-width:3.36516"
         d="m 68.31676,103.30997 v 2.24586 c 30.434561,0 33.5845,8.56124 59.40206,8.56124 25.81755,0 28.96725,-8.56124 59.40516,-8.56124 v -2.24586 c -30.43791,0 -33.58761,8.55762 -59.40516,8.55762 -25.81665,0 -28.967101,-8.55702 -59.40206,-8.55762 z" /><path
         d="m 127.71878,57.775654 c -25.81758,0 -28.967376,8.557631 -59.405333,8.557631 v 36.976475 c 30.437957,0 33.587753,8.55763 59.405333,8.55763 25.81758,0 28.96739,-8.55763 59.40533,-8.55763 V 66.333285 c -30.43794,0 -33.58775,-8.557631 -59.40533,-8.557631"
         fill="#b20029"
         id="path7483"
         style="fill:url(#radialGradient26565);fill-opacity:1;stroke:none;stroke-width:3.36516" /><path
         id="path7485"
         style="fill:#ffffff;fill-opacity:1;stroke:none;stroke-width:3.36516;stroke-opacity:1;filter:url(#filter25439)"
         d="m 98.843062,70.138354 c -1.463847,0 -2.664953,1.191278 -2.664953,2.661854 0,1.467215 1.201106,2.664953 2.664953,2.664953 1.467218,0 2.661858,-1.197738 2.661858,-2.664953 0,-1.470576 -1.19464,-2.661854 -2.661858,-2.661854 z m 32.946308,1.868104 -5.18263,2.069641 v 3.095935 h -1.9451 l -0.0367,3.448885 h 1.98179 v 8.645467 c 0,3.930518 2.28197,6.477641 5.82549,6.477641 4.47566,0 4.90946,-3.815792 4.93975,-4.933033 0.007,-0.181718 -0.0876,-0.205356 -0.22893,-0.07751 -0.49132,0.434106 -1.72298,1.359607 -3.22048,1.359607 -1.7768,0 -2.1332,-1.218519 -2.1332,-3.183785 v -8.288383 h 1.6924 c 3.24403,0 3.18689,-3.48971 3.18689,-3.48971 h -4.87929 z m -52.743032,0.07028 c 0,0 -0.208585,0.01341 -0.02687,0.137977 0.296136,0.201907 0.703316,0.720358 0.703316,1.989025 v 18.700151 0.238745 c -0.0033,1.258568 -0.40718,1.766964 -0.703316,1.968872 -0.181718,0.124513 0.02997,0.134359 0.02997,0.134359 h 13.205396 c 1.302321,0 2.018998,-0.827693 2.018998,-2.321822 v -2.076359 h -0.0067 v -0.659908 c 0,0 -0.01006,-0.208339 -0.137976,-0.02997 -0.191816,0.289407 -0.666332,0.666046 -1.807125,0.699699 -0.477853,0.0035 -1.019773,0.01034 -1.615405,0.01034 H 85.628365 V 72.083455 h -4.93665 v -0.0067 z m 36.292362,4.555795 c -1.93833,0 -3.8803,0.851463 -5.33405,2.345593 l -0.40669,0.417546 V 77.13431 h -5.49579 c 0,0 -0.20831,0.01016 -0.03,0.134359 0.30287,0.205271 0.70332,0.723713 0.70332,1.995743 v 0.174667 c 0,0 0.01,21.523951 0.0134,21.560961 0,0 1.94853,0.77714 5.84202,1.23816 0.074,0.0104 0.21168,-0.0169 0.03,-0.13797 -0.27258,-0.18846 -0.62569,-0.62932 -0.69299,-1.66243 l -0.007,-7.103962 0.41083,0.437699 c 1.22829,1.325887 2.82987,1.971973 4.89272,1.971973 3.03202,0 4.92334,-1.645676 5.97328,-3.028756 1.34943,-1.756619 2.12339,-4.125611 2.12339,-6.494694 0,-2.645022 -0.80091,-5.071388 -2.24121,-6.828007 -1.46721,-1.78017 -3.51966,-2.759521 -5.78104,-2.759521 z m 32.29777,5.17e-4 c -5.25976,0 -9.53689,4.276887 -9.53689,9.533268 0,5.263118 4.27713,9.540503 9.53689,9.540503 5.25303,0 9.53016,-4.277385 9.53016,-9.540503 0,-5.256381 -4.27713,-9.533268 -9.53016,-9.533268 z m 22.29838,0.001 c -2.71568,0 -4.52263,1.32577 -5.56245,2.439644 l -0.41083,0.4377 v -2.379183 h -5.50199 c 0,0 -0.20884,0.01341 -0.0305,0.137976 0.30623,0.205272 0.70693,0.720095 0.70693,1.992126 l 0.007,-0.01344 c 0.003,0.06391 0.003,0.130883 0.003,0.188102 v 5.781559 h -0.003 V 95.25 l 5.82859,-0.0036 c 0,0 0.19872,-0.01017 0.0238,-0.134359 -0.25912,-0.17163 -0.57886,-0.565534 -0.67645,-1.44384 v -7.585066 c 0,-3.270936 2.18732,-5.461682 4.22662,-5.461682 1.45375,0 2.02261,0.848377 2.02261,3.039091 v 9.240779 c 0,0.04715 0.0103,0.08415 0.0134,0.131258 V 95.25 l 5.81153,0.0036 c 0,0 0.2021,-0.01068 0.0305,-0.134875 h -5.2e-4 c -0.25575,-0.174991 -0.57213,-0.561953 -0.66972,-1.420068 V 83.162366 c 0,-2.143607 -0.50152,-3.785866 -1.48415,-4.882906 -0.9759,-1.093677 -2.43614,-1.645378 -4.3341,-1.645378 z m -68.45164,0.498161 -5.179011,5.17e-4 h -0.676444 c 0,0 -0.208322,0.01352 -0.02997,0.137976 0.299499,0.201908 0.699688,0.71005 0.706417,1.965254 v 13.665833 c 0,0.07061 2e-4,0.151531 -0.0031,0.228927 l -0.0036,-0.01034 c 0,1.275407 -0.406915,1.783492 -0.706417,1.992127 -0.178354,0.124513 0.02997,0.134875 0.02997,0.134875 l 5.862175,-0.0072 z m 12.50932,3.044258 c 2.5407,0 4.05866,2.237654 4.05866,5.989816 0,1.547983 -0.54184,3.048553 -1.51773,4.222998 -0.93216,1.130691 -2.28155,1.804024 -3.668,1.804024 -0.64611,0 -1.76019,-0.144699 -2.83032,-1.123962 l -0.0739,-0.06718 v -7.611938 c 0,-0.03363 0.0402,-3.213758 4.03128,-3.213758 z m 33.64394,0 c 2.54069,0 4.60023,2.685224 4.60023,5.989816 0,3.311327 -2.05954,6.00015 -4.60023,6.00015 -2.5407,0 -4.60334,-2.688823 -4.60334,-6.00015 0,-3.304592 2.06264,-5.989816 4.60334,-5.989816 z" /></g></g></svg>
